<svg xmlns="http://www.w3.org/2000/svg" width="277.07" height="77" viewBox="0 0 277.07 77">
  <g id="maazalarcom_logo" transform="translate(-21.63 -23.26)">
    <g id="Group_105" data-name="Group 105" transform="translate(21.63 23.26)">
      <g id="Group_104" data-name="Group 104">
        <path id="Path_63" data-name="Path 63" d="M66.957,90.369a1.109,1.109,0,0,1-.308.766,1.029,1.029,0,0,1-.8.337H62.408a1.156,1.156,0,0,1-1.1-1.1l-.183-16.334a6.734,6.734,0,0,0-6.878-7.186,6.758,6.758,0,0,0-4.791,1.9,6.9,6.9,0,0,0-2.029,5.282l-.183,16.334a1.109,1.109,0,0,1-.308.766,1.029,1.029,0,0,1-.8.337H42.692a1.156,1.156,0,0,1-1.1-1.1l-.246-16.334a6.892,6.892,0,0,0-2.029-5.282,6.776,6.776,0,0,0-4.791-1.9,6.782,6.782,0,0,0-6.878,7.186l-.183,16.334a1.109,1.109,0,0,1-.308.766,1.029,1.029,0,0,1-.8.337H22.917a1.156,1.156,0,0,1-1.1-1.1L21.63,73.356l.062-10.564a1.035,1.035,0,0,1,.337-.8,1.109,1.109,0,0,1,.766-.308h3.682a1.007,1.007,0,0,1,.737.308,1.248,1.248,0,0,1,.367.737v1.6a7.2,7.2,0,0,1,3.041-2.4,10.446,10.446,0,0,1,4.145-.8,13.4,13.4,0,0,1,5.557,1.229,11.258,11.258,0,0,1,4.391,3.378,11.32,11.32,0,0,1,9.519-4.607,13.15,13.15,0,0,1,7.123,1.812A11.522,11.522,0,0,1,65.686,67.7a14.192,14.192,0,0,1,1.441,6.324Z" transform="translate(-21.63 -45.355)" fill="#3a355a"/>
        <path id="Path_64" data-name="Path 64" d="M170.277,81.9q0,3.074-.121,5.4c-.083,1.558-.146,2.537-.183,2.949a1.17,1.17,0,0,1-.367.858,1.25,1.25,0,0,1-.921.367h-3.253a1.114,1.114,0,0,1-.8-.367,1.425,1.425,0,0,1-.429-.858l-.062-2.7a.2.2,0,0,0-.092-.183c-.062-.042-.133-.021-.217.062a9.209,9.209,0,0,1-3.807,2.887,12.034,12.034,0,0,1-4.974,1.166,15.177,15.177,0,0,1-13.143-22.757,15.257,15.257,0,0,1,5.528-5.528,14.765,14.765,0,0,1,7.615-2.058,14.6,14.6,0,0,1,7.369,1.933,15.322,15.322,0,0,1,5.436,5.22A14.75,14.75,0,0,1,170.1,75.57Q170.273,78.957,170.277,81.9Zm-10.718,2.212a9.111,9.111,0,0,0,4.449-7.861,8.617,8.617,0,0,0-1.229-4.511,9.112,9.112,0,0,0-3.287-3.253,8.8,8.8,0,0,0-4.516-1.2,8.519,8.519,0,0,0-4.453,1.229,9.407,9.407,0,0,0-3.287,3.287,8.9,8.9,0,0,0,0,9.027,9.338,9.338,0,0,0,3.287,3.287,8.621,8.621,0,0,0,4.516,1.229A8.746,8.746,0,0,0,159.559,84.114Z" transform="translate(-90.621 -45.36)" fill="#3a355a"/>
        <path id="Path_65" data-name="Path 65" d="M252.087,81.9q0,3.074-.121,5.4c-.083,1.558-.146,2.537-.183,2.949a1.17,1.17,0,0,1-.367.858,1.25,1.25,0,0,1-.921.367h-3.253a1.114,1.114,0,0,1-.8-.367,1.425,1.425,0,0,1-.429-.858l-.062-2.7a.2.2,0,0,0-.092-.183c-.062-.042-.133-.021-.217.062a9.209,9.209,0,0,1-3.807,2.887,12.034,12.034,0,0,1-4.974,1.166,15.177,15.177,0,0,1-13.143-22.757,15.256,15.256,0,0,1,5.528-5.528,14.765,14.765,0,0,1,7.615-2.058,14.6,14.6,0,0,1,7.369,1.933,15.322,15.322,0,0,1,5.436,5.22,14.75,14.75,0,0,1,2.241,7.277Q252.089,78.957,252.087,81.9Zm-10.714,2.212a9.11,9.11,0,0,0,4.449-7.861,8.617,8.617,0,0,0-1.229-4.511,9.112,9.112,0,0,0-3.287-3.253,8.8,8.8,0,0,0-4.516-1.2,8.519,8.519,0,0,0-4.453,1.229,9.407,9.407,0,0,0-3.287,3.287,8.9,8.9,0,0,0,0,9.027,9.339,9.339,0,0,0,3.287,3.287,8.621,8.621,0,0,0,4.516,1.229A8.757,8.757,0,0,0,241.373,84.114Z" transform="translate(-138.351 -45.36)" fill="#3a355a"/>
        <path id="Path_66" data-name="Path 66" d="M324.484,91.3l-19.712.183a.784.784,0,0,1-.612-.275.947.947,0,0,1-.246-.646,1.166,1.166,0,0,1,.121-.612L311.4,76.311l5.1-9.152-12.1-.183a.991.991,0,0,1-.737-.308,1.007,1.007,0,0,1-.308-.737v-3.5a.991.991,0,0,1,.308-.737,1.007,1.007,0,0,1,.737-.308l20.02-.246a.816.816,0,0,1,.675.308,1.061,1.061,0,0,1,.246.675,1.041,1.041,0,0,1-.121.554L317.79,76.311l-5.036,9.152,11.731.246a1.053,1.053,0,0,1,1.046,1.046V90.2a1.109,1.109,0,0,1-.308.766A.971.971,0,0,1,324.484,91.3Z" transform="translate(-186 -45.36)" fill="#3a355a"/>
        <path id="Path_67" data-name="Path 67" d="M391.547,81.9q0,3.074-.121,5.4c-.083,1.558-.146,2.537-.183,2.949a1.17,1.17,0,0,1-.367.858,1.25,1.25,0,0,1-.921.367H386.7a1.114,1.114,0,0,1-.8-.367,1.425,1.425,0,0,1-.429-.858l-.063-2.7a.2.2,0,0,0-.092-.183c-.062-.042-.133-.021-.217.062a9.209,9.209,0,0,1-3.807,2.887,12.034,12.034,0,0,1-4.974,1.166,15.177,15.177,0,0,1-13.143-22.757,15.257,15.257,0,0,1,5.528-5.528,14.776,14.776,0,0,1,7.615-2.058,14.6,14.6,0,0,1,7.369,1.933,15.322,15.322,0,0,1,5.436,5.22,14.75,14.75,0,0,1,2.241,7.277Q391.543,78.957,391.547,81.9Zm-10.714,2.212a9.126,9.126,0,0,0,4.453-7.861,8.617,8.617,0,0,0-1.229-4.511,9.112,9.112,0,0,0-3.287-3.253,8.8,8.8,0,0,0-4.511-1.2,8.519,8.519,0,0,0-4.453,1.229,9.407,9.407,0,0,0-3.287,3.287,8.9,8.9,0,0,0,0,9.027,9.373,9.373,0,0,0,3.287,3.287,8.621,8.621,0,0,0,4.516,1.229A8.76,8.76,0,0,0,380.833,84.114Z" transform="translate(-219.716 -45.36)" fill="#3a355a"/>
        <path id="Path_68" data-name="Path 68" d="M451.35,23.568a1.007,1.007,0,0,1,.308.737l.183,9.827V58.452l-.183,9.885a1.052,1.052,0,0,1-1.046,1.046h-3.624a.991.991,0,0,1-.737-.308,1.007,1.007,0,0,1-.308-.737l-.183-9.885V34.132l.183-9.827a.991.991,0,0,1,.308-.737,1.007,1.007,0,0,1,.737-.308h3.624A1.007,1.007,0,0,1,451.35,23.568Z" transform="translate(-269.081 -23.26)" fill="#3a355a"/>
        <path id="Path_69" data-name="Path 69" d="M502.707,81.9q0,3.074-.121,5.4c-.083,1.558-.146,2.537-.183,2.949a1.17,1.17,0,0,1-.367.858,1.25,1.25,0,0,1-.921.367h-3.253a1.114,1.114,0,0,1-.8-.367,1.425,1.425,0,0,1-.429-.858l-.062-2.7a.2.2,0,0,0-.092-.183c-.062-.042-.133-.021-.217.062a9.209,9.209,0,0,1-3.807,2.887,12.034,12.034,0,0,1-4.974,1.166,15.177,15.177,0,0,1-13.143-22.757,15.257,15.257,0,0,1,5.528-5.528,14.766,14.766,0,0,1,7.615-2.058,14.6,14.6,0,0,1,7.369,1.933,15.322,15.322,0,0,1,5.436,5.22,14.75,14.75,0,0,1,2.241,7.277Q502.7,78.957,502.707,81.9Zm-10.718,2.212a9.126,9.126,0,0,0,4.453-7.861,8.617,8.617,0,0,0-1.229-4.511,9.112,9.112,0,0,0-3.287-3.253,8.8,8.8,0,0,0-4.511-1.2,8.52,8.52,0,0,0-4.453,1.229,9.407,9.407,0,0,0-3.287,3.287,8.9,8.9,0,0,0,0,9.027,9.373,9.373,0,0,0,3.287,3.287,8.621,8.621,0,0,0,4.516,1.229A8.739,8.739,0,0,0,491.989,84.114Z" transform="translate(-284.571 -45.36)" fill="#3a355a"/>
        <path id="Path_70" data-name="Path 70" d="M574.625,66.643a1.114,1.114,0,0,1-.367.8l-2.274,2.087a1.175,1.175,0,0,1-1.35-.062,6.336,6.336,0,0,0-3.624-1.291,4.755,4.755,0,0,0-3.533,1.475,5.133,5.133,0,0,0-1.441,3.745l-.063,17.317A1.253,1.253,0,0,1,560.686,92h-3.07a1.253,1.253,0,0,1-1.287-1.287l.308-20.633a21.838,21.838,0,0,0-.217-3.345q-.219-1.381-.275-1.687a7.822,7.822,0,0,1-.246-1.229v-.183a.886.886,0,0,1,.275-.646.961.961,0,0,1,.708-.275l3.928-.675a1.046,1.046,0,0,1,.612.217,1.188,1.188,0,0,1,.429.521,3.19,3.19,0,0,1,.183.675,10.006,10.006,0,0,1,4.42-.983,10.771,10.771,0,0,1,4.236.858,11,11,0,0,1,3.624,2.516A1.415,1.415,0,0,1,574.625,66.643Z" transform="translate(-333.339 -45.885)" fill="#3a355a"/>
      </g>
    </g>
    <path id="Path_71" data-name="Path 71" d="M606.148,150.5l-45.031,12.072a3.545,3.545,0,0,1-4.341-2.5L553.219,146.8a3.545,3.545,0,0,1,2.5-4.341l45.031-12.072a3.545,3.545,0,0,1,4.341,2.5l3.557,13.264A3.541,3.541,0,0,1,606.148,150.5Z" transform="translate(-310.074 -62.431)" fill="#3a355a"/>
    <path id="Path_72" data-name="Path 72" d="M607.113,152.34l-40.9,10.964a3.545,3.545,0,0,1-4.341-2.5L559,150.074a3.545,3.545,0,0,1,2.5-4.341l40.9-10.964a3.545,3.545,0,0,1,4.341,2.5L609.616,148A3.541,3.541,0,0,1,607.113,152.34Z" transform="translate(-313.446 -64.987)" fill="#6b348b"/>
    <g id="Group_107" data-name="Group 107" transform="translate(247.322 57.734)">
      <g id="Group_106" data-name="Group 106" transform="translate(0)">
        <path id="Path_73" data-name="Path 73" d="M564.047,128.867a.586.586,0,0,1-.4-.029.389.389,0,0,1-.15-.6l15.884-21.987a.6.6,0,0,1,.7-.187l24.677,10.952a.392.392,0,0,1,.175.6.6.6,0,0,1-.712.2l-24.253-10.764-15.609,21.607A.618.618,0,0,1,564.047,128.867Z" transform="translate(-563.416 -106.016)" fill="#3a355a"/>
      </g>
    </g>
    <circle id="Ellipse_11" data-name="Ellipse 11" cx="1.191" cy="1.191" r="1.191" transform="translate(262.411 56.927)" fill="#3a355a"/>
    <g id="Group_108" data-name="Group 108" transform="translate(253.329 75.568)">
      <path id="Path_74" data-name="Path 74" d="M580.167,185.943a1.1,1.1,0,0,1-.125.879,1.145,1.145,0,0,1-.716.55,1.179,1.179,0,0,1-.9-.108,1.109,1.109,0,0,1-.55-.708,1.129,1.129,0,0,1,.121-.9,1.145,1.145,0,0,1,.716-.55,1.194,1.194,0,0,1,1.45.833Z" transform="translate(-577.837 -169.971)" fill="#fff"/>
      <path id="Path_75" data-name="Path 75" d="M592.256,170.659a.332.332,0,0,1,.171.208.323.323,0,0,1-.029.258,4.563,4.563,0,0,1-1.229,1.466,4.926,4.926,0,0,1-1.808.9,4.652,4.652,0,0,1-2.437.012,4.6,4.6,0,0,1-2.083-1.179,4.47,4.47,0,0,1-1.208-2.074,4.893,4.893,0,0,1-.058-2.424,4.278,4.278,0,0,1,1.141-2.045,4.775,4.775,0,0,1,2.2-1.233,4.949,4.949,0,0,1,2.07-.108,4.441,4.441,0,0,1,1.787.646.351.351,0,0,1,.129.2.361.361,0,0,1-.042.283l-.558.887a.342.342,0,0,1-.212.154.323.323,0,0,1-.237-.012,3.568,3.568,0,0,0-1.216-.412,3.27,3.27,0,0,0-1.275.108,2.652,2.652,0,0,0-1.745,1.275,3.293,3.293,0,0,0,1.041,3.995,2.694,2.694,0,0,0,2.191.2,3.555,3.555,0,0,0,2.045-1.5.264.264,0,0,1,.179-.125.323.323,0,0,1,.258.029Z" transform="translate(-581.112 -157.903)" fill="#fff"/>
      <path id="Path_76" data-name="Path 76" d="M610.828,158.82a4.692,4.692,0,0,1,2.07,1.2,4.5,4.5,0,0,1,1.2,2.079,4.584,4.584,0,0,1,0,2.408,4.644,4.644,0,0,1-5.682,3.27,4.631,4.631,0,0,1-3.258-3.283,4.511,4.511,0,0,1,0-2.4,4.7,4.7,0,0,1,1.183-2.066,4.471,4.471,0,0,1,2.075-1.208A4.542,4.542,0,0,1,610.828,158.82Zm-3.174,2.516a2.823,2.823,0,0,0-.716,1.241,2.673,2.673,0,0,0,0,1.437,2.745,2.745,0,0,0,.725,1.254,2.777,2.777,0,0,0,1.246.725,2.673,2.673,0,0,0,1.437,0,2.744,2.744,0,0,0,1.254-.725,2.8,2.8,0,0,0,.725-2.7,2.7,2.7,0,0,0-.721-1.246,2.819,2.819,0,0,0-2.7-.712A2.676,2.676,0,0,0,607.654,161.336Z" transform="translate(-593.685 -154.561)" fill="#fff"/>
      <path id="Path_77" data-name="Path 77" d="M642.456,156.635a.351.351,0,0,1-.029.25.308.308,0,0,1-.208.162l-1.016.271a.345.345,0,0,1-.254-.037.324.324,0,0,1-.158-.2l-1.346-4.807a2.061,2.061,0,0,0-2.6-1.579,2.047,2.047,0,0,0-1.262.941,2.116,2.116,0,0,0-.179,1.72l1.237,4.836a.352.352,0,0,1-.029.25.308.308,0,0,1-.208.162l-1.016.271a.346.346,0,0,1-.254-.037.324.324,0,0,1-.158-.2l-1.366-4.8a2.1,2.1,0,0,0-1.016-1.4,2.1,2.1,0,0,0-3.024,2.479l1.237,4.836a.351.351,0,0,1-.029.25.308.308,0,0,1-.208.162l-1.016.271a.346.346,0,0,1-.254-.038.324.324,0,0,1-.158-.2l-1.4-5.007-.816-3.124a.32.32,0,0,1,.038-.262.325.325,0,0,1,.2-.15l1.087-.292a.308.308,0,0,1,.242.033.4.4,0,0,1,.167.187l.125.471a2.2,2.2,0,0,1,.708-.946,3.15,3.15,0,0,1,1.162-.562,4.113,4.113,0,0,1,1.737-.079,3.42,3.42,0,0,1,1.562.65A3.457,3.457,0,0,1,636.4,149a4,4,0,0,1,2.245-.029,3.513,3.513,0,0,1,1.654,1.062,4.313,4.313,0,0,1,.925,1.754Z" transform="translate(-606.468 -148.828)" fill="#fff"/>
    </g>
  </g>
</svg>
